<?xml version="1.0" encoding="UTF-8" standalone="no" ?>
<!DOCTYPE svg PUBLIC "-//W3C//DTD SVG 1.1//EN" "http://www.w3.org/Graphics/SVG/1.1/DTD/svg11.dtd">
<svg xmlns="http://www.w3.org/2000/svg" xmlns:xlink="http://www.w3.org/1999/xlink" version="1.1" width="640" height="360" viewBox="0 0 640 360" xml:space="preserve">
<desc>Created with Fabric.js 3.6.6</desc>
<defs>
</defs>
<g transform="matrix(1.2 0 0 1.2 317 178.66)" clip-path="url(#CLIPPATH_13)"  >
<clipPath id="CLIPPATH_13" >
	<path transform="matrix(1 0 0 1 0 0) translate(-267.5, -122.22)" d="m 21 21 h 41.6 l 9.1 13.7 c 5 7.6 15.8 24 24.1 36.5 l 14.9 22.7 l -0.5 -36.5 l -0.5 -36.4 l 21.4 0.2 c 18.3 0.3 21.4 0.5 21.7 1.8 c 0.1 0.9 -3.2 5.2 -7.5 9.6 c -8.7 8.8 -12.9 16.3 -16.2 28.5 c -5.6 20.6 -3.9 41.6 5 60.6 c 2.4 5 5.3 8.9 11.1 14.6 l 7.9 7.9 l -0.3 6.1 l -0.3 6.2 l -21 0.3 l -21 0.2 l -23 -35 c -12.6 -19.3 -23.6 -35.9 -24.3 -36.8 c -1.1 -1.4 -1.2 -0.6 -0.8 5.3 c 0.3 3.8 0.9 20.4 1.2 36.7 l 0.7 29.8 h -43.3 z m 254.5 0 l 22.8 0.2 l 22.9 0.3 l 12 33.5 c 6.6 18.4 16 44.5 20.8 58 c 4.9 13.5 10.4 28.9 12.4 34.2 l 3.4 9.8 h -44.4 l -2.6 -8.8 l -2.5 -8.7 h -44.6 l -2.5 8.7 l -2.6 8.8 h -21.9 c -20.5 0 -21.9 -0.1 -21.2 -1.8 c 0.4 -0.9 1.1 -2.8 1.6 -4.2 c 0.6 -1.6 3.1 -3.6 7.2 -5.8 c 22.5 -11.6 35.5 -41.6 31.1 -71.4 c -0.8 -5.4 -2.1 -11.5 -2.9 -13.7 c -1.3 -3.8 -1.2 -4.4 4.8 -21.5 z m 22.5 42 c -0.3 0 -3.4 10 -6.9 22.3 c -3.5 12.2 -6.6 22.8 -6.8 23.4 c -0.4 1 2.7 1.3 13.6 1.3 c 10.1 0 14.1 -0.3 14.1 -1.2 c 0 -0.6 -3 -11.2 -6.7 -23.5 c -3.7 -12.2 -7 -22.3 -7.3 -22.3 z m 82 -42 h 45 v 46 h 42 v -46 h 45 v 136 h -45 v -53 h -42 v 53 h -45 z m -180.5 29.6 c 12.8 1.3 20 9.2 23.1 25.1 c 3.6 18.8 -0.5 37.8 -9.8 45.8 c -9.2 7.8 -24 7.4 -32.4 -1.1 c -13.1 -13 -13.5 -49.8 -0.7 -63 c 3.5 -3.5 6 -4.9 11.8 -6.5 c 1.7 -0.4 5.3 -0.6 8 -0.3 z m 83.3 120.6 c 3 0.2 3.8 0.7 4 2.5 c 0.3 2 0.9 2.3 4.8 2.3 c 4.1 0 4.4 -0.2 4.4 -2.6 c 0 -2.3 0.3 -2.5 3.8 -2.2 c 3 0.2 3.8 0.7 4 2.5 c 0.3 1.8 1 2.3 3.3 2.3 c 2.4 0 2.9 0.4 2.9 2.5 c 0 2.1 -0.5 2.5 -3 2.5 c -2.5 0 -3 0.4 -3 2.5 c 0 2.2 -0.4 2.5 -4 2.5 c -3.6 0 -4 -0.3 -4 -2.5 c 0 -2.3 -0.4 -2.5 -4.5 -2.5 c -4.3 0 -4.5 0.1 -4.5 3 c 0 2.8 0.2 3 4 3 c 3.1 0 3.8 0.3 3.4 1.5 c -0.5 1.3 0.7 1.5 7.5 1.5 h 8.1 v 6.1 l -9.7 -0.2 c -9.5 -0.2 -9.7 -0.1 -12.2 2.7 l -2.4 2.9 l 10.6 0.3 l 10.7 0.3 v 8.4 c 0 11.6 0.1 11.5 -16.6 11.5 h -13.4 v -7.1 c 0 -7.6 0.3 -7.3 -4.7 -5.2 c -0.9 0.3 -1.3 -0.4 -1.3 -2 c 0 -1.7 1.2 -3.3 3.8 -5.2 c 3.7 -2.8 6.2 -5.4 6.2 -6.4 c 0 -0.4 -2 -0.5 -4.5 -0.3 c -4.4 0.4 -4.5 0.4 -4.5 -2.7 v -3 l 6.7 -0.3 c 5.5 -0.2 6.8 -0.6 7.1 -2.1 c 0.3 -1.4 -0.4 -1.7 -3.2 -1.7 c -3.2 0 -3.6 -0.3 -3.6 -2.5 c 0 -2.2 -0.4 -2.5 -3.5 -2.5 c -3.1 0 -3.5 -0.3 -3.5 -2.5 c 0 -2.2 0.4 -2.5 3.5 -2.5 c 3.1 0 3.5 -0.3 3.5 -2.6 c 0 -2.3 0.3 -2.5 3.8 -2.2 z m 16.7 35.8 h -14.6 l 0.3 5.2 l 0.3 5.3 l 4.4 0.3 c 7.8 0.6 8.9 -0.1 9.3 -5.8 z m 102.1 -36 c 2.4 0 3.4 0.5 3.4 1.5 c 0 1.2 1.5 1.5 7.5 1.5 c 7.3 0 7.5 0.1 7.5 2.5 c 0 2.3 -0.4 2.5 -4.5 2.5 c -4.1 0 -4.5 0.2 -4.5 2.5 c 0 2.3 0.3 2.5 5 2.5 c 4.3 0 5 0.3 5 2 c 0 1.7 -0.7 2 -4.7 2 l -4.8 0.1 l 3.3 2.9 c 1.8 1.7 3.9 3 4.7 3 c 0.8 0 1.5 0.9 1.5 2 c 0 1.2 -0.7 2 -1.7 2 c -2.3 -0.1 -9.9 -3.5 -10.7 -4.9 c -0.5 -0.7 -2 -0.2 -4.4 1.4 c -4.8 3.1 -11.2 4.4 -11.2 2.2 c 0 -0.8 2 -2.7 4.5 -4.1 c 2.5 -1.5 4.5 -3.1 4.5 -3.6 c 0 -0.6 -2 -1 -4.5 -1 c -3.8 0 -4.5 -0.3 -4.5 -2 c 0 -1.7 0.7 -2 5 -2 c 5.2 0 6.9 -1.3 5.6 -4.5 c -0.5 -1.4 -0.9 -1.4 -3.3 -0.2 c -5.5 2.8 -7.3 3 -7.3 0.8 c 0 -1.1 0.9 -2.5 2 -3.1 c 1.1 -0.6 2.3 -2.2 2.6 -3.5 c 0.5 -2 1.2 -2.5 4 -2.5 z m 94.5 0 c 3.7 0 3.9 0.2 3.9 3 c 0 3 0.1 3 5.5 3 c 5.2 0 5.5 0.1 5.5 2.5 c 0 2.4 -0.3 2.5 -5.5 2.5 c -5.4 0 -5.5 0 -5.5 3 v 3 h 6.5 c 6.3 0 6.5 0.1 6.5 2.5 v 2.5 h -37 v -2.5 c 0 -2.3 0.3 -2.4 7.8 -2.7 c 7.6 -0.3 7.7 -0.3 8 -3.1 c 0.3 -2.5 0.1 -2.7 -3.5 -2.7 c -2.2 0 -4.8 0.9 -6.3 2 c -5.3 4.2 -6.4 1.7 -2.7 -6.1 c 2 -4.3 2.6 -4.8 5.5 -4.9 c 2.6 0 3.2 0.4 3.2 2.1 c 0 3.2 3.4 2 3.8 -1.4 c 0.3 -2.4 0.7 -2.7 4.3 -2.7 z m -233.4 1 c 3.8 0 4 0.2 5.6 4.7 c 2.3 6.6 2.2 7.1 -1.7 7.1 c -3.2 0 -3.6 -0.4 -4.9 -4.2 c -0.8 -2.2 -1.8 -4.9 -2.2 -5.9 c -0.6 -1.4 -0.1 -1.7 3.2 -1.7 z m 201.4 1 h 3.8 c 3.5 0 3.8 0.2 5.4 4.7 c 0.9 2.7 1.7 5.1 1.7 5.5 c 0 0.5 -1.8 0.8 -4 0.8 c -2.2 0 -4 -0.3 -4 -0.8 c 0 -0.4 -0.7 -2.8 -1.5 -5.5 z m -138.1 1 l 25.3 0.2 l 25.2 0.3 l 0.3 2.7 l 0.3 2.8 h -14.1 v 35.9 l 7.3 0.3 c 6.9 0.3 7.2 0.4 7.2 2.8 v 2.5 l -25.7 0.3 l -25.8 0.2 v -6 h 14 v -36 h -14 z m 29 6 h -6 v 36 h 6 z m 68 -6 h 21 v 9 c 0 12.1 -0.8 13 -12.5 13 h -8.5 z m 14.1 5 h -7.1 v 12.1 l 3.3 -0.3 c 3.2 -0.3 3.2 -0.4 3.5 -6.1 z m -110.2 7 h 3.5 c 2.9 0 3.6 0.4 4 2.2 c 0.2 1.3 1.1 5.9 2 10.3 c 2 10.3 2.1 9.7 -1.6 9.3 c -3.1 -0.3 -3.4 -0.7 -4.9 -6.3 c -0.9 -3.3 -1.9 -8.1 -2.3 -10.8 z m 45.6 0 c 4.1 0 4.1 0.1 1.9 10.8 c -2.1 10 -2.8 11.2 -6.6 11.2 c -2.7 0 -3 -0.3 -2.4 -2.3 c 0.8 -3 2.4 -11.3 3.1 -16 c 0.6 -3.4 0.8 -3.7 4 -3.7 z m -115.5 1 h 12 v 13 c 0 11.8 0.7 15 2.5 12 c 1.3 -2.1 2.6 -0.9 2.3 2.2 c -0.3 2.8 -1.1 3.7 -5.3 6 c -2.7 1.5 -5.6 2.8 -6.2 2.8 c -1 0 -1.3 -3.7 -1.3 -15 c 0 -14.3 -0.1 -15 -2 -15 c -1.6 0 -2 -0.7 -2 -3 z m 204 1 h 12 v 12.5 c 0 12 0.1 12.7 2.5 15 c 2.4 2.5 2.6 2.5 20.5 2.5 h 18 v 5 h -18.3 c -15.8 0 -18.8 -0.2 -21.9 -1.9 c -3.1 -1.5 -3.9 -1.6 -5 -0.4 c -0.8 0.7 -2.8 1.7 -4.6 2.2 c -2.9 0.9 -3.2 0.8 -3.2 -1.3 c 0 -1.3 0.9 -3.1 2 -4.1 c 1.8 -1.6 2 -3.1 2 -12.7 c 0 -10.1 -0.1 -10.8 -2 -10.8 c -1.6 0 -2 -0.7 -2 -3 z m 19 9 h 30 v 6.9 c 0 10 -0.2 10.1 -16.6 10.1 h -13.4 z m 14.3 5 h -7.4 l 0.3 3.2 l 0.3 3.3 h 6.9 c 6.7 0 7 -0.1 7.7 -2.7 c 0.4 -1.5 0.4 -2.9 0.1 -3.2 c -0.3 -0.3 -3.9 -0.6 -7.9 -0.6 z m -96.3 -3 h 43 v 9.4 c 0 7.9 -0.3 9.7 -2.1 12 l -2 2.6 h -38.9 z m 35 5 h -13 c -10.5 0 -13.2 0.3 -13.6 1.5 c -1.2 3 0.7 3.5 13.7 3.5 h 12.9 z m -12.8 9 c -7.1 0 -13.2 0.3 -13.5 0.7 c -0.4 0.3 -0.7 1.5 -0.7 2.5 c 0 1.7 0.9 1.8 13.3 1.6 c 12.8 -0.3 13.2 -0.4 13.5 -2.6 c 0.3 -2.2 0.2 -2.2 -12.6 -2.2 z" stroke-linecap="round" />
</clipPath>
<path style="stroke: rgb(255,255,255); stroke-opacity: 0; stroke-width: 1; stroke-dasharray: none; stroke-linecap: butt; stroke-dashoffset: 0; stroke-linejoin: miter; stroke-miterlimit: 4; fill: rgb(255,255,255); fill-rule: evenodd; opacity: 1;"  transform=" translate(-267.5, -122.22)" d="m 21 21 h 41.6 l 9.1 13.7 c 5 7.6 15.8 24 24.1 36.5 l 14.9 22.7 l -0.5 -36.5 l -0.5 -36.4 l 21.4 0.2 c 18.3 0.3 21.4 0.5 21.7 1.8 c 0.1 0.9 -3.2 5.2 -7.5 9.6 c -8.7 8.8 -12.9 16.3 -16.2 28.5 c -5.6 20.6 -3.9 41.6 5 60.6 c 2.4 5 5.3 8.9 11.1 14.6 l 7.9 7.9 l -0.3 6.1 l -0.3 6.2 l -21 0.3 l -21 0.2 l -23 -35 c -12.6 -19.3 -23.6 -35.9 -24.3 -36.8 c -1.1 -1.4 -1.2 -0.6 -0.8 5.3 c 0.3 3.8 0.9 20.4 1.2 36.7 l 0.7 29.8 h -43.3 z m 254.5 0 l 22.8 0.2 l 22.9 0.3 l 12 33.5 c 6.6 18.4 16 44.5 20.8 58 c 4.9 13.5 10.4 28.9 12.4 34.2 l 3.4 9.8 h -44.4 l -2.6 -8.8 l -2.5 -8.7 h -44.6 l -2.5 8.7 l -2.6 8.8 h -21.9 c -20.5 0 -21.9 -0.1 -21.2 -1.8 c 0.4 -0.9 1.1 -2.8 1.6 -4.2 c 0.6 -1.6 3.1 -3.6 7.2 -5.8 c 22.5 -11.6 35.5 -41.6 31.1 -71.4 c -0.8 -5.4 -2.1 -11.5 -2.9 -13.7 c -1.3 -3.8 -1.2 -4.4 4.8 -21.5 z m 22.5 42 c -0.3 0 -3.4 10 -6.9 22.3 c -3.5 12.2 -6.6 22.8 -6.8 23.4 c -0.4 1 2.7 1.3 13.6 1.3 c 10.1 0 14.1 -0.3 14.1 -1.2 c 0 -0.6 -3 -11.2 -6.7 -23.5 c -3.7 -12.2 -7 -22.3 -7.3 -22.3 z m 82 -42 h 45 v 46 h 42 v -46 h 45 v 136 h -45 v -53 h -42 v 53 h -45 z m -180.5 29.6 c 12.8 1.3 20 9.2 23.1 25.1 c 3.6 18.8 -0.5 37.8 -9.8 45.8 c -9.2 7.8 -24 7.4 -32.4 -1.1 c -13.1 -13 -13.5 -49.8 -0.7 -63 c 3.5 -3.5 6 -4.9 11.8 -6.5 c 1.7 -0.4 5.3 -0.6 8 -0.3 z m 83.3 120.6 c 3 0.2 3.8 0.7 4 2.5 c 0.3 2 0.9 2.3 4.8 2.3 c 4.1 0 4.4 -0.2 4.4 -2.6 c 0 -2.3 0.3 -2.5 3.8 -2.2 c 3 0.2 3.8 0.7 4 2.5 c 0.3 1.8 1 2.3 3.3 2.3 c 2.4 0 2.9 0.4 2.9 2.5 c 0 2.1 -0.5 2.5 -3 2.5 c -2.5 0 -3 0.4 -3 2.5 c 0 2.2 -0.4 2.5 -4 2.5 c -3.6 0 -4 -0.3 -4 -2.5 c 0 -2.3 -0.4 -2.5 -4.5 -2.5 c -4.3 0 -4.5 0.1 -4.5 3 c 0 2.8 0.2 3 4 3 c 3.1 0 3.8 0.3 3.4 1.5 c -0.5 1.3 0.7 1.5 7.5 1.5 h 8.1 v 6.1 l -9.7 -0.2 c -9.5 -0.2 -9.7 -0.1 -12.2 2.7 l -2.4 2.9 l 10.6 0.3 l 10.7 0.3 v 8.4 c 0 11.6 0.1 11.5 -16.6 11.5 h -13.4 v -7.1 c 0 -7.6 0.3 -7.3 -4.7 -5.2 c -0.9 0.3 -1.3 -0.4 -1.3 -2 c 0 -1.7 1.2 -3.3 3.8 -5.2 c 3.7 -2.8 6.2 -5.4 6.2 -6.4 c 0 -0.4 -2 -0.5 -4.5 -0.3 c -4.4 0.4 -4.5 0.4 -4.5 -2.7 v -3 l 6.7 -0.3 c 5.5 -0.2 6.8 -0.6 7.1 -2.1 c 0.3 -1.4 -0.4 -1.7 -3.2 -1.7 c -3.2 0 -3.6 -0.3 -3.6 -2.5 c 0 -2.2 -0.4 -2.5 -3.5 -2.5 c -3.1 0 -3.5 -0.3 -3.5 -2.5 c 0 -2.2 0.4 -2.5 3.5 -2.5 c 3.1 0 3.5 -0.3 3.5 -2.6 c 0 -2.3 0.3 -2.5 3.8 -2.2 z m 16.7 35.8 h -14.6 l 0.3 5.2 l 0.3 5.3 l 4.4 0.3 c 7.8 0.6 8.9 -0.1 9.3 -5.8 z m 102.1 -36 c 2.4 0 3.4 0.5 3.4 1.5 c 0 1.2 1.5 1.5 7.5 1.5 c 7.3 0 7.5 0.1 7.5 2.5 c 0 2.3 -0.4 2.5 -4.5 2.5 c -4.1 0 -4.5 0.2 -4.5 2.5 c 0 2.3 0.3 2.5 5 2.5 c 4.3 0 5 0.3 5 2 c 0 1.7 -0.7 2 -4.7 2 l -4.8 0.1 l 3.3 2.9 c 1.8 1.7 3.9 3 4.7 3 c 0.8 0 1.5 0.9 1.5 2 c 0 1.2 -0.7 2 -1.7 2 c -2.3 -0.1 -9.9 -3.5 -10.7 -4.9 c -0.5 -0.7 -2 -0.2 -4.4 1.4 c -4.8 3.1 -11.2 4.4 -11.2 2.2 c 0 -0.8 2 -2.7 4.5 -4.1 c 2.5 -1.5 4.5 -3.1 4.5 -3.6 c 0 -0.6 -2 -1 -4.5 -1 c -3.8 0 -4.5 -0.3 -4.5 -2 c 0 -1.7 0.7 -2 5 -2 c 5.2 0 6.9 -1.3 5.6 -4.5 c -0.5 -1.4 -0.9 -1.4 -3.3 -0.2 c -5.5 2.8 -7.3 3 -7.3 0.8 c 0 -1.1 0.9 -2.5 2 -3.1 c 1.1 -0.6 2.3 -2.2 2.6 -3.5 c 0.5 -2 1.2 -2.5 4 -2.5 z m 94.5 0 c 3.7 0 3.9 0.2 3.9 3 c 0 3 0.1 3 5.5 3 c 5.2 0 5.5 0.1 5.5 2.5 c 0 2.4 -0.3 2.5 -5.5 2.5 c -5.4 0 -5.5 0 -5.5 3 v 3 h 6.5 c 6.3 0 6.5 0.1 6.5 2.5 v 2.5 h -37 v -2.5 c 0 -2.3 0.3 -2.4 7.8 -2.7 c 7.6 -0.3 7.7 -0.3 8 -3.1 c 0.3 -2.5 0.1 -2.7 -3.5 -2.7 c -2.2 0 -4.8 0.9 -6.3 2 c -5.3 4.2 -6.4 1.7 -2.7 -6.1 c 2 -4.3 2.6 -4.8 5.5 -4.9 c 2.6 0 3.2 0.4 3.2 2.1 c 0 3.2 3.4 2 3.8 -1.4 c 0.3 -2.4 0.7 -2.7 4.3 -2.7 z m -233.4 1 c 3.8 0 4 0.2 5.6 4.7 c 2.3 6.6 2.2 7.1 -1.7 7.1 c -3.2 0 -3.6 -0.4 -4.9 -4.2 c -0.8 -2.2 -1.8 -4.9 -2.2 -5.9 c -0.6 -1.4 -0.1 -1.7 3.2 -1.7 z m 201.4 1 h 3.8 c 3.5 0 3.8 0.2 5.4 4.7 c 0.9 2.7 1.7 5.1 1.7 5.5 c 0 0.5 -1.8 0.8 -4 0.8 c -2.2 0 -4 -0.3 -4 -0.8 c 0 -0.4 -0.7 -2.8 -1.5 -5.5 z m -138.1 1 l 25.3 0.2 l 25.2 0.3 l 0.3 2.7 l 0.3 2.8 h -14.1 v 35.9 l 7.3 0.3 c 6.9 0.3 7.2 0.4 7.2 2.8 v 2.5 l -25.7 0.3 l -25.8 0.2 v -6 h 14 v -36 h -14 z m 29 6 h -6 v 36 h 6 z m 68 -6 h 21 v 9 c 0 12.1 -0.8 13 -12.5 13 h -8.5 z m 14.1 5 h -7.1 v 12.1 l 3.3 -0.3 c 3.2 -0.3 3.2 -0.4 3.5 -6.1 z m -110.2 7 h 3.5 c 2.9 0 3.6 0.4 4 2.2 c 0.2 1.3 1.1 5.9 2 10.3 c 2 10.3 2.1 9.7 -1.6 9.3 c -3.1 -0.3 -3.4 -0.7 -4.9 -6.3 c -0.9 -3.3 -1.9 -8.1 -2.3 -10.8 z m 45.6 0 c 4.1 0 4.1 0.1 1.9 10.8 c -2.1 10 -2.8 11.2 -6.6 11.2 c -2.7 0 -3 -0.3 -2.4 -2.3 c 0.8 -3 2.4 -11.3 3.1 -16 c 0.6 -3.4 0.8 -3.7 4 -3.7 z m -115.5 1 h 12 v 13 c 0 11.8 0.7 15 2.5 12 c 1.3 -2.1 2.6 -0.9 2.3 2.2 c -0.3 2.8 -1.1 3.7 -5.3 6 c -2.7 1.5 -5.6 2.8 -6.2 2.8 c -1 0 -1.3 -3.7 -1.3 -15 c 0 -14.3 -0.1 -15 -2 -15 c -1.6 0 -2 -0.7 -2 -3 z m 204 1 h 12 v 12.5 c 0 12 0.1 12.7 2.5 15 c 2.4 2.5 2.6 2.5 20.5 2.5 h 18 v 5 h -18.3 c -15.8 0 -18.8 -0.2 -21.9 -1.9 c -3.1 -1.5 -3.9 -1.6 -5 -0.4 c -0.8 0.7 -2.8 1.7 -4.6 2.2 c -2.9 0.9 -3.2 0.8 -3.2 -1.3 c 0 -1.3 0.9 -3.1 2 -4.1 c 1.8 -1.6 2 -3.1 2 -12.7 c 0 -10.1 -0.1 -10.8 -2 -10.8 c -1.6 0 -2 -0.7 -2 -3 z m 19 9 h 30 v 6.9 c 0 10 -0.2 10.1 -16.6 10.1 h -13.4 z m 14.3 5 h -7.4 l 0.3 3.2 l 0.3 3.3 h 6.9 c 6.7 0 7 -0.1 7.7 -2.7 c 0.4 -1.5 0.4 -2.9 0.1 -3.2 c -0.3 -0.3 -3.9 -0.6 -7.9 -0.6 z m -96.3 -3 h 43 v 9.4 c 0 7.9 -0.3 9.7 -2.1 12 l -2 2.6 h -38.9 z m 35 5 h -13 c -10.5 0 -13.2 0.3 -13.6 1.5 c -1.2 3 0.7 3.5 13.7 3.5 h 12.9 z m -12.8 9 c -7.1 0 -13.2 0.3 -13.5 0.7 c -0.4 0.3 -0.7 1.5 -0.7 2.5 c 0 1.7 0.9 1.8 13.3 1.6 c 12.8 -0.3 13.2 -0.4 13.5 -2.6 c 0.3 -2.2 0.2 -2.2 -12.6 -2.2 z" stroke-linecap="round" />
</g>
</svg>